<?xml version="1.0" encoding="UTF-8" standalone="no"?>
<!DOCTYPE svg PUBLIC "-//W3C//DTD SVG 1.1//EN"
 "http://www.w3.org/Graphics/SVG/1.1/DTD/svg11.dtd">
<!-- Generated by graphviz version 2.26.3 (20100126.1600)
 -->
<!-- Title: controllers_diagram Pages: 1 -->
<svg width="1120pt" height="1444pt"
 viewBox="0.00 0.00 1120.00 1443.91" xmlns="http://www.w3.org/2000/svg" xmlns:xlink="http://www.w3.org/1999/xlink">
<g id="graph1" class="graph" transform="scale(1 1) rotate(0) translate(4 1439.91)">
<title>controllers_diagram</title>
<polygon fill="white" stroke="white" points="-4,5 -4,-1439.91 1117,-1439.91 1117,5 -4,5"/>
<!-- _diagram_info -->
<g id="node1" class="node"><title>_diagram_info</title>
<text text-anchor="start" x="869" y="-508.3" font-family="Times Roman,serif" font-size="13.00">Controllers diagram</text>
<text text-anchor="start" x="869" y="-491.3" font-family="Times Roman,serif" font-size="13.00">Date: Jun 20 2013 &#45; 11:14</text>
<text text-anchor="start" x="869" y="-474.3" font-family="Times Roman,serif" font-size="13.00">Migration version: 20130410155430</text>
<text text-anchor="start" x="869" y="-457.3" font-family="Times Roman,serif" font-size="13.00">Generated by RailRoady 1.1.0</text>
<text text-anchor="start" x="869" y="-440.3" font-family="Times Roman,serif" font-size="13.00">http://railroady.prestonlee.com</text>
</g>
<!-- ApiKeysController -->
<g id="node2" class="node"><title>ApiKeysController</title>
<polyline fill="none" stroke="black" points="28.9665,-768.169 251.966,-768.169 "/>
<path fill="none" stroke="black" d="M251.966,-768.169C257.966,-768.169 263.966,-774.169 263.966,-780.169"/>
<polyline fill="none" stroke="black" points="263.966,-780.169 263.966,-948.169 "/>
<path fill="none" stroke="black" d="M263.966,-948.169C263.966,-954.169 257.966,-960.169 251.966,-960.169"/>
<polyline fill="none" stroke="black" points="251.966,-960.169 28.9665,-960.169 "/>
<path fill="none" stroke="black" d="M28.9665,-960.169C22.9665,-960.169 16.9665,-954.169 16.9665,-948.169"/>
<polyline fill="none" stroke="black" points="16.9665,-948.169 16.9665,-780.169 "/>
<path fill="none" stroke="black" d="M16.9665,-780.169C16.9665,-774.169 22.9665,-768.169 28.9665,-768.169"/>
<text text-anchor="middle" x="140.466" y="-943.569" font-family="Times Roman,serif" font-size="14.00">ApiKeysController</text>
<polyline fill="none" stroke="black" points="16.9665,-934.169 263.966,-934.169 "/>
<text text-anchor="start" x="24.9665" y="-917.569" font-family="Times Roman,serif" font-size="14.00">_one_time_conditions_valid_110?</text>
<text text-anchor="start" x="24.9665" y="-899.569" font-family="Times Roman,serif" font-size="14.00">_one_time_conditions_valid_112?</text>
<text text-anchor="start" x="24.9665" y="-881.569" font-family="Times Roman,serif" font-size="14.00">create</text>
<text text-anchor="start" x="24.9665" y="-863.569" font-family="Times Roman,serif" font-size="14.00">destroy</text>
<text text-anchor="start" x="24.9665" y="-845.569" font-family="Times Roman,serif" font-size="14.00">index</text>
<text text-anchor="start" x="24.9665" y="-827.569" font-family="Times Roman,serif" font-size="14.00">update</text>
<polyline fill="none" stroke="black" points="16.9665,-818.169 263.966,-818.169 "/>
<polyline fill="none" stroke="black" points="16.9665,-794.169 263.966,-794.169 "/>
<text text-anchor="start" x="24.9665" y="-777.569" font-family="Times Roman,serif" font-size="14.00">_layout</text>
</g>
<!-- MailerController -->
<g id="node3" class="node"><title>MailerController</title>
<polyline fill="none" stroke="black" points="605.075,-885.653 709.075,-885.653 "/>
<path fill="none" stroke="black" d="M709.075,-885.653C715.075,-885.653 721.075,-891.653 721.075,-897.653"/>
<polyline fill="none" stroke="black" points="721.075,-897.653 721.075,-975.653 "/>
<path fill="none" stroke="black" d="M721.075,-975.653C721.075,-981.653 715.075,-987.653 709.075,-987.653"/>
<polyline fill="none" stroke="black" points="709.075,-987.653 605.075,-987.653 "/>
<path fill="none" stroke="black" d="M605.075,-987.653C599.075,-987.653 593.075,-981.653 593.075,-975.653"/>
<polyline fill="none" stroke="black" points="593.075,-975.653 593.075,-897.653 "/>
<path fill="none" stroke="black" d="M593.075,-897.653C593.075,-891.653 599.075,-885.653 605.075,-885.653"/>
<text text-anchor="middle" x="657.075" y="-971.053" font-family="Times Roman,serif" font-size="14.00">MailerController</text>
<polyline fill="none" stroke="black" points="593.075,-961.653 721.075,-961.653 "/>
<text text-anchor="start" x="601.075" y="-945.053" font-family="Times Roman,serif" font-size="14.00">resetpassword</text>
<polyline fill="none" stroke="black" points="593.075,-935.653 721.075,-935.653 "/>
<polyline fill="none" stroke="black" points="593.075,-911.653 721.075,-911.653 "/>
<text text-anchor="start" x="601.075" y="-895.053" font-family="Times Roman,serif" font-size="14.00">_layout</text>
</g>
<!-- UserSessionsController -->
<g id="node4" class="node"><title>UserSessionsController</title>
<polyline fill="none" stroke="black" points="291.256,-166.553 514.256,-166.553 "/>
<path fill="none" stroke="black" d="M514.256,-166.553C520.256,-166.553 526.256,-172.553 526.256,-178.553"/>
<polyline fill="none" stroke="black" points="526.256,-178.553 526.256,-346.553 "/>
<path fill="none" stroke="black" d="M526.256,-346.553C526.256,-352.553 520.256,-358.553 514.256,-358.553"/>
<polyline fill="none" stroke="black" points="514.256,-358.553 291.256,-358.553 "/>
<path fill="none" stroke="black" d="M291.256,-358.553C285.256,-358.553 279.256,-352.553 279.256,-346.553"/>
<polyline fill="none" stroke="black" points="279.256,-346.553 279.256,-178.553 "/>
<path fill="none" stroke="black" d="M279.256,-178.553C279.256,-172.553 285.256,-166.553 291.256,-166.553"/>
<text text-anchor="middle" x="402.756" y="-341.953" font-family="Times Roman,serif" font-size="14.00">UserSessionsController</text>
<polyline fill="none" stroke="black" points="279.256,-332.553 526.256,-332.553 "/>
<text text-anchor="start" x="287.256" y="-315.953" font-family="Times Roman,serif" font-size="14.00">_one_time_conditions_valid_114?</text>
<text text-anchor="start" x="287.256" y="-297.953" font-family="Times Roman,serif" font-size="14.00">_one_time_conditions_valid_118?</text>
<text text-anchor="start" x="287.256" y="-279.953" font-family="Times Roman,serif" font-size="14.00">create</text>
<text text-anchor="start" x="287.256" y="-261.953" font-family="Times Roman,serif" font-size="14.00">destroy</text>
<text text-anchor="start" x="287.256" y="-243.953" font-family="Times Roman,serif" font-size="14.00">new</text>
<text text-anchor="start" x="287.256" y="-225.953" font-family="Times Roman,serif" font-size="14.00">show</text>
<polyline fill="none" stroke="black" points="279.256,-216.553 526.256,-216.553 "/>
<polyline fill="none" stroke="black" points="279.256,-192.553 526.256,-192.553 "/>
<text text-anchor="start" x="287.256" y="-175.953" font-family="Times Roman,serif" font-size="14.00">_layout</text>
</g>
<!-- PlacesController -->
<g id="node5" class="node"><title>PlacesController</title>
<polyline fill="none" stroke="black" points="290.467,-1027.1 513.467,-1027.1 "/>
<path fill="none" stroke="black" d="M513.467,-1027.1C519.467,-1027.1 525.467,-1033.1 525.467,-1039.1"/>
<polyline fill="none" stroke="black" points="525.467,-1039.1 525.467,-1261.1 "/>
<path fill="none" stroke="black" d="M525.467,-1261.1C525.467,-1267.1 519.467,-1273.1 513.467,-1273.1"/>
<polyline fill="none" stroke="black" points="513.467,-1273.1 290.467,-1273.1 "/>
<path fill="none" stroke="black" d="M290.467,-1273.1C284.467,-1273.1 278.467,-1267.1 278.467,-1261.1"/>
<polyline fill="none" stroke="black" points="278.467,-1261.1 278.467,-1039.1 "/>
<path fill="none" stroke="black" d="M278.467,-1039.1C278.467,-1033.1 284.467,-1027.1 290.467,-1027.1"/>
<text text-anchor="middle" x="401.967" y="-1256.5" font-family="Times Roman,serif" font-size="14.00">PlacesController</text>
<polyline fill="none" stroke="black" points="278.467,-1247.1 525.467,-1247.1 "/>
<text text-anchor="start" x="286.467" y="-1230.5" font-family="Times Roman,serif" font-size="14.00">_one_time_conditions_valid_126?</text>
<text text-anchor="start" x="286.467" y="-1212.5" font-family="Times Roman,serif" font-size="14.00">create</text>
<text text-anchor="start" x="286.467" y="-1194.5" font-family="Times Roman,serif" font-size="14.00">destroy</text>
<text text-anchor="start" x="286.467" y="-1176.5" font-family="Times Roman,serif" font-size="14.00">edit</text>
<text text-anchor="start" x="286.467" y="-1158.5" font-family="Times Roman,serif" font-size="14.00">hierarchify</text>
<text text-anchor="start" x="286.467" y="-1140.5" font-family="Times Roman,serif" font-size="14.00">index</text>
<text text-anchor="start" x="286.467" y="-1122.5" font-family="Times Roman,serif" font-size="14.00">new</text>
<text text-anchor="start" x="286.467" y="-1104.5" font-family="Times Roman,serif" font-size="14.00">show</text>
<text text-anchor="start" x="286.467" y="-1086.5" font-family="Times Roman,serif" font-size="14.00">update</text>
<polyline fill="none" stroke="black" points="278.467,-1077.1 525.467,-1077.1 "/>
<polyline fill="none" stroke="black" points="278.467,-1053.1 525.467,-1053.1 "/>
<text text-anchor="start" x="286.467" y="-1036.5" font-family="Times Roman,serif" font-size="14.00">_layout</text>
</g>
<!-- SubdomainsController -->
<g id="node6" class="node"><title>SubdomainsController</title>
<polyline fill="none" stroke="black" points="625.248,-1162.13 770.248,-1162.13 "/>
<path fill="none" stroke="black" d="M770.248,-1162.13C776.248,-1162.13 782.248,-1168.13 782.248,-1174.13"/>
<polyline fill="none" stroke="black" points="782.248,-1174.13 782.248,-1270.13 "/>
<path fill="none" stroke="black" d="M782.248,-1270.13C782.248,-1276.13 776.248,-1282.13 770.248,-1282.13"/>
<polyline fill="none" stroke="black" points="770.248,-1282.13 625.248,-1282.13 "/>
<path fill="none" stroke="black" d="M625.248,-1282.13C619.248,-1282.13 613.248,-1276.13 613.248,-1270.13"/>
<polyline fill="none" stroke="black" points="613.248,-1270.13 613.248,-1174.13 "/>
<path fill="none" stroke="black" d="M613.248,-1174.13C613.248,-1168.13 619.248,-1162.13 625.248,-1162.13"/>
<text text-anchor="middle" x="697.748" y="-1265.53" font-family="Times Roman,serif" font-size="14.00">SubdomainsController</text>
<polyline fill="none" stroke="black" points="613.248,-1256.13 782.248,-1256.13 "/>
<text text-anchor="start" x="621.248" y="-1239.53" font-family="Times Roman,serif" font-size="14.00">crossdomain</text>
<text text-anchor="start" x="621.248" y="-1221.53" font-family="Times Roman,serif" font-size="14.00">index</text>
<polyline fill="none" stroke="black" points="613.248,-1212.13 782.248,-1212.13 "/>
<polyline fill="none" stroke="black" points="613.248,-1188.13 782.248,-1188.13 "/>
<text text-anchor="start" x="621.248" y="-1171.53" font-family="Times Roman,serif" font-size="14.00">_layout</text>
</g>
<!-- ApplicationController -->
<g id="node7" class="node"><title>ApplicationController</title>
<polyline fill="none" stroke="black" points="300.455,-452.492 523.455,-452.492 "/>
<path fill="none" stroke="black" d="M523.455,-452.492C529.455,-452.492 535.455,-458.492 535.455,-464.492"/>
<polyline fill="none" stroke="black" points="535.455,-464.492 535.455,-938.492 "/>
<path fill="none" stroke="black" d="M535.455,-938.492C535.455,-944.492 529.455,-950.492 523.455,-950.492"/>
<polyline fill="none" stroke="black" points="523.455,-950.492 300.455,-950.492 "/>
<path fill="none" stroke="black" d="M300.455,-950.492C294.455,-950.492 288.455,-944.492 288.455,-938.492"/>
<polyline fill="none" stroke="black" points="288.455,-938.492 288.455,-464.492 "/>
<path fill="none" stroke="black" d="M288.455,-464.492C288.455,-458.492 294.455,-452.492 300.455,-452.492"/>
<text text-anchor="middle" x="411.955" y="-933.892" font-family="Times Roman,serif" font-size="14.00">ApplicationController</text>
<polyline fill="none" stroke="black" points="288.455,-924.492 535.455,-924.492 "/>
<text text-anchor="start" x="296.455" y="-907.892" font-family="Times Roman,serif" font-size="14.00">_one_time_conditions_valid_100?</text>
<text text-anchor="start" x="296.455" y="-889.892" font-family="Times Roman,serif" font-size="14.00">_one_time_conditions_valid_102?</text>
<text text-anchor="start" x="296.455" y="-871.892" font-family="Times Roman,serif" font-size="14.00">get_locale</text>
<text text-anchor="start" x="296.455" y="-853.892" font-family="Times Roman,serif" font-size="14.00">set_variables</text>
<polyline fill="none" stroke="black" points="288.455,-844.492 535.455,-844.492 "/>
<polyline fill="none" stroke="black" points="288.455,-820.492 535.455,-820.492 "/>
<text text-anchor="start" x="296.455" y="-803.892" font-family="Times Roman,serif" font-size="14.00">_layout</text>
<text text-anchor="start" x="296.455" y="-785.892" font-family="Times Roman,serif" font-size="14.00">bad_channel_xml</text>
<text text-anchor="start" x="296.455" y="-767.892" font-family="Times Roman,serif" font-size="14.00">bad_feed_xml</text>
<text text-anchor="start" x="296.455" y="-749.892" font-family="Times Roman,serif" font-size="14.00">channel_permission?</text>
<text text-anchor="start" x="296.455" y="-731.892" font-family="Times Roman,serif" font-size="14.00">check_permissions</text>
<text text-anchor="start" x="296.455" y="-713.892" font-family="Times Roman,serif" font-size="14.00">current_user</text>
<text text-anchor="start" x="296.455" y="-695.892" font-family="Times Roman,serif" font-size="14.00">current_user_session</text>
<text text-anchor="start" x="296.455" y="-677.892" font-family="Times Roman,serif" font-size="14.00">domain</text>
<text text-anchor="start" x="296.455" y="-659.892" font-family="Times Roman,serif" font-size="14.00">get_channel_data</text>
<text text-anchor="start" x="296.455" y="-641.892" font-family="Times Roman,serif" font-size="14.00">get_date_range</text>
<text text-anchor="start" x="296.455" y="-623.892" font-family="Times Roman,serif" font-size="14.00">get_header_value</text>
<text text-anchor="start" x="296.455" y="-605.892" font-family="Times Roman,serif" font-size="14.00">get_userkey</text>
<text text-anchor="start" x="296.455" y="-587.892" font-family="Times Roman,serif" font-size="14.00">is_a_number?</text>
<text text-anchor="start" x="296.455" y="-569.892" font-family="Times Roman,serif" font-size="14.00">redirect_back_or_default</text>
<text text-anchor="start" x="296.455" y="-551.892" font-family="Times Roman,serif" font-size="14.00">require_no_user</text>
<text text-anchor="start" x="296.455" y="-533.892" font-family="Times Roman,serif" font-size="14.00">require_user</text>
<text text-anchor="start" x="296.455" y="-515.892" font-family="Times Roman,serif" font-size="14.00">set_channels_menu</text>
<text text-anchor="start" x="296.455" y="-497.892" font-family="Times Roman,serif" font-size="14.00">set_time_zone</text>
<text text-anchor="start" x="296.455" y="-479.892" font-family="Times Roman,serif" font-size="14.00">set_timezone_from_offset</text>
<text text-anchor="start" x="296.455" y="-461.892" font-family="Times Roman,serif" font-size="14.00">store_location</text>
</g>
<!-- ApplicationController&#45;&gt;ApiKeysController -->
<g id="edge2" class="edge"><title>ApplicationController&#45;&gt;ApiKeysController</title>
<path fill="none" stroke="black" d="M288.128,-775.69C280.156,-780.466 272.13,-785.276 264.159,-790.052"/>
</g>
<!-- ApplicationController&#45;&gt;MailerController -->
<g id="edge4" class="edge"><title>ApplicationController&#45;&gt;MailerController</title>
<path fill="none" stroke="black" d="M535.592,-820.106C559.626,-843.164 583.605,-866.169 603.832,-885.573"/>
</g>
<!-- ApplicationController&#45;&gt;UserSessionsController -->
<g id="edge6" class="edge"><title>ApplicationController&#45;&gt;UserSessionsController</title>
<path fill="none" stroke="black" d="M406.731,-452.206C406.038,-419.16 405.365,-387.033 404.775,-358.897"/>
</g>
<!-- ApplicationController&#45;&gt;PlacesController -->
<g id="edge8" class="edge"><title>ApplicationController&#45;&gt;PlacesController</title>
<path fill="none" stroke="black" d="M406.406,-950.724C405.818,-977.143 405.24,-1003.1 404.705,-1027.09"/>
</g>
<!-- ApplicationController&#45;&gt;SubdomainsController -->
<g id="edge10" class="edge"><title>ApplicationController&#45;&gt;SubdomainsController</title>
<path fill="none" stroke="black" d="M535.646,-926.823C582.864,-1012.84 632.932,-1104.05 664.719,-1161.96"/>
</g>
<!-- ChartsController -->
<g id="node8" class="node"><title>ChartsController</title>
<polyline fill="none" stroke="black" points="84.4943,-449.061 191.494,-449.061 "/>
<path fill="none" stroke="black" d="M191.494,-449.061C197.494,-449.061 203.494,-455.061 203.494,-461.061"/>
<polyline fill="none" stroke="black" points="203.494,-461.061 203.494,-629.061 "/>
<path fill="none" stroke="black" d="M203.494,-629.061C203.494,-635.061 197.494,-641.061 191.494,-641.061"/>
<polyline fill="none" stroke="black" points="191.494,-641.061 84.4943,-641.061 "/>
<path fill="none" stroke="black" d="M84.4943,-641.061C78.4943,-641.061 72.4943,-635.061 72.4943,-629.061"/>
<polyline fill="none" stroke="black" points="72.4943,-629.061 72.4943,-461.061 "/>
<path fill="none" stroke="black" d="M72.4943,-461.061C72.4943,-455.061 78.4943,-449.061 84.4943,-449.061"/>
<text text-anchor="middle" x="137.994" y="-624.461" font-family="Times Roman,serif" font-size="14.00">ChartsController</text>
<polyline fill="none" stroke="black" points="72.4943,-615.061 203.494,-615.061 "/>
<text text-anchor="start" x="80.4943" y="-598.461" font-family="Times Roman,serif" font-size="14.00">index</text>
<text text-anchor="start" x="80.4943" y="-580.461" font-family="Times Roman,serif" font-size="14.00">show</text>
<text text-anchor="start" x="80.4943" y="-562.461" font-family="Times Roman,serif" font-size="14.00">update</text>
<polyline fill="none" stroke="black" points="72.4943,-553.061 203.494,-553.061 "/>
<polyline fill="none" stroke="black" points="72.4943,-529.061 203.494,-529.061 "/>
<text text-anchor="start" x="80.4943" y="-512.461" font-family="Times Roman,serif" font-size="14.00">_layout</text>
<text text-anchor="start" x="80.4943" y="-494.461" font-family="Times Roman,serif" font-size="14.00">default_height</text>
<text text-anchor="start" x="80.4943" y="-476.461" font-family="Times Roman,serif" font-size="14.00">default_width</text>
<text text-anchor="start" x="80.4943" y="-458.461" font-family="Times Roman,serif" font-size="14.00">fix_color</text>
</g>
<!-- ApplicationController&#45;&gt;ChartsController -->
<g id="edge12" class="edge"><title>ApplicationController&#45;&gt;ChartsController</title>
<path fill="none" stroke="black" d="M288.199,-630.828C258.989,-614.148 228.968,-597.007 203.518,-582.475"/>
</g>
<!-- StatusController -->
<g id="node9" class="node"><title>StatusController</title>
<polyline fill="none" stroke="black" points="659.975,-638.472 796.975,-638.472 "/>
<path fill="none" stroke="black" d="M796.975,-638.472C802.975,-638.472 808.975,-644.472 808.975,-650.472"/>
<polyline fill="none" stroke="black" points="808.975,-650.472 808.975,-764.472 "/>
<path fill="none" stroke="black" d="M808.975,-764.472C808.975,-770.472 802.975,-776.472 796.975,-776.472"/>
<polyline fill="none" stroke="black" points="796.975,-776.472 659.975,-776.472 "/>
<path fill="none" stroke="black" d="M659.975,-776.472C653.975,-776.472 647.975,-770.472 647.975,-764.472"/>
<polyline fill="none" stroke="black" points="647.975,-764.472 647.975,-650.472 "/>
<path fill="none" stroke="black" d="M647.975,-650.472C647.975,-644.472 653.975,-638.472 659.975,-638.472"/>
<text text-anchor="middle" x="728.475" y="-759.872" font-family="Times Roman,serif" font-size="14.00">StatusController</text>
<polyline fill="none" stroke="black" points="647.975,-750.472 808.975,-750.472 "/>
<text text-anchor="start" x="655.975" y="-733.872" font-family="Times Roman,serif" font-size="14.00">index</text>
<text text-anchor="start" x="655.975" y="-715.872" font-family="Times Roman,serif" font-size="14.00">show</text>
<polyline fill="none" stroke="black" points="647.975,-706.472 808.975,-706.472 "/>
<polyline fill="none" stroke="black" points="647.975,-682.472 808.975,-682.472 "/>
<text text-anchor="start" x="655.975" y="-665.872" font-family="Times Roman,serif" font-size="14.00">_layout</text>
<text text-anchor="start" x="655.975" y="-647.872" font-family="Times Roman,serif" font-size="14.00">channel_select_terse</text>
</g>
<!-- ApplicationController&#45;&gt;StatusController -->
<g id="edge14" class="edge"><title>ApplicationController&#45;&gt;StatusController</title>
<path fill="none" stroke="black" d="M535.69,-703.83C573.315,-704.541 613.677,-705.303 647.697,-705.946"/>
</g>
<!-- FeedController -->
<g id="node10" class="node"><title>FeedController</title>
<polyline fill="none" stroke="black" points="54.6713,-1.5 196.671,-1.5 "/>
<path fill="none" stroke="black" d="M196.671,-1.5C202.671,-1.5 208.671,-7.5 208.671,-13.5"/>
<polyline fill="none" stroke="black" points="208.671,-13.5 208.671,-397.5 "/>
<path fill="none" stroke="black" d="M208.671,-397.5C208.671,-403.5 202.671,-409.5 196.671,-409.5"/>
<polyline fill="none" stroke="black" points="196.671,-409.5 54.6713,-409.5 "/>
<path fill="none" stroke="black" d="M54.6713,-409.5C48.6713,-409.5 42.6713,-403.5 42.6713,-397.5"/>
<polyline fill="none" stroke="black" points="42.6713,-397.5 42.6713,-13.5 "/>
<path fill="none" stroke="black" d="M42.6713,-13.5C42.6713,-7.5 48.6713,-1.5 54.6713,-1.5"/>
<text text-anchor="middle" x="125.671" y="-392.9" font-family="Times Roman,serif" font-size="14.00">FeedController</text>
<polyline fill="none" stroke="black" points="42.6713,-383.5 208.671,-383.5 "/>
<text text-anchor="start" x="50.6713" y="-366.9" font-family="Times Roman,serif" font-size="14.00">index</text>
<text text-anchor="start" x="50.6713" y="-348.9" font-family="Times Roman,serif" font-size="14.00">show</text>
<polyline fill="none" stroke="black" points="42.6713,-339.5 208.671,-339.5 "/>
<polyline fill="none" stroke="black" points="42.6713,-315.5 208.671,-315.5 "/>
<text text-anchor="start" x="50.6713" y="-298.9" font-family="Times Roman,serif" font-size="14.00">_layout</text>
<text text-anchor="start" x="50.6713" y="-280.9" font-family="Times Roman,serif" font-size="14.00">channel_select_data</text>
<text text-anchor="start" x="50.6713" y="-262.9" font-family="Times Roman,serif" font-size="14.00">create_empty_clone</text>
<text text-anchor="start" x="50.6713" y="-244.9" font-family="Times Roman,serif" font-size="14.00">feed_select_data</text>
<text text-anchor="start" x="50.6713" y="-226.9" font-family="Times Roman,serif" font-size="14.00">feeds_into_averages</text>
<text text-anchor="start" x="50.6713" y="-208.9" font-family="Times Roman,serif" font-size="14.00">feeds_into_medians</text>
<text text-anchor="start" x="50.6713" y="-190.9" font-family="Times Roman,serif" font-size="14.00">feeds_into_sums</text>
<text text-anchor="start" x="50.6713" y="-172.9" font-family="Times Roman,serif" font-size="14.00">feeds_into_timescales</text>
<text text-anchor="start" x="50.6713" y="-154.9" font-family="Times Roman,serif" font-size="14.00">get_floored_time</text>
<text text-anchor="start" x="50.6713" y="-136.9" font-family="Times Roman,serif" font-size="14.00">is_a_number?</text>
<text text-anchor="start" x="50.6713" y="-118.9" font-family="Times Roman,serif" font-size="14.00">item_round</text>
<text text-anchor="start" x="50.6713" y="-100.9" font-family="Times Roman,serif" font-size="14.00">object_average</text>
<text text-anchor="start" x="50.6713" y="-82.9" font-family="Times Roman,serif" font-size="14.00">object_median</text>
<text text-anchor="start" x="50.6713" y="-64.9" font-family="Times Roman,serif" font-size="14.00">object_round</text>
<text text-anchor="start" x="50.6713" y="-46.9" font-family="Times Roman,serif" font-size="14.00">object_sum</text>
<text text-anchor="start" x="50.6713" y="-28.9" font-family="Times Roman,serif" font-size="14.00">parsefloat</text>
<text text-anchor="start" x="50.6713" y="-10.9" font-family="Times Roman,serif" font-size="14.00">timeparam_valid?</text>
</g>
<!-- ApplicationController&#45;&gt;FeedController -->
<g id="edge16" class="edge"><title>ApplicationController&#45;&gt;FeedController</title>
<path fill="none" stroke="black" d="M288.26,-487.188C261.417,-440.683 233.645,-392.567 208.814,-349.547"/>
</g>
<!-- PagesController -->
<g id="node11" class="node"><title>PagesController</title>
<polyline fill="none" stroke="black" points="613.024,-422.409 714.024,-422.409 "/>
<path fill="none" stroke="black" d="M714.024,-422.409C720.024,-422.409 726.024,-428.409 726.024,-434.409"/>
<polyline fill="none" stroke="black" points="726.024,-434.409 726.024,-512.409 "/>
<path fill="none" stroke="black" d="M726.024,-512.409C726.024,-518.409 720.024,-524.409 714.024,-524.409"/>
<polyline fill="none" stroke="black" points="714.024,-524.409 613.024,-524.409 "/>
<path fill="none" stroke="black" d="M613.024,-524.409C607.024,-524.409 601.024,-518.409 601.024,-512.409"/>
<polyline fill="none" stroke="black" points="601.024,-512.409 601.024,-434.409 "/>
<path fill="none" stroke="black" d="M601.024,-434.409C601.024,-428.409 607.024,-422.409 613.024,-422.409"/>
<text text-anchor="middle" x="663.524" y="-507.809" font-family="Times Roman,serif" font-size="14.00">PagesController</text>
<polyline fill="none" stroke="black" points="601.024,-498.409 726.024,-498.409 "/>
<text text-anchor="start" x="609.024" y="-481.809" font-family="Times Roman,serif" font-size="14.00">home</text>
<polyline fill="none" stroke="black" points="601.024,-472.409 726.024,-472.409 "/>
<polyline fill="none" stroke="black" points="601.024,-448.409 726.024,-448.409 "/>
<text text-anchor="start" x="609.024" y="-431.809" font-family="Times Roman,serif" font-size="14.00">_layout</text>
</g>
<!-- ApplicationController&#45;&gt;PagesController -->
<g id="edge18" class="edge"><title>ApplicationController&#45;&gt;PagesController</title>
<path fill="none" stroke="black" d="M535.529,-589.455C560.629,-566.698 585.847,-543.835 607.182,-524.491"/>
</g>
<!-- UsersController -->
<g id="node12" class="node"><title>UsersController</title>
<polyline fill="none" stroke="black" points="584.939,-54.442 807.939,-54.442 "/>
<path fill="none" stroke="black" d="M807.939,-54.442C813.939,-54.442 819.939,-60.442 819.939,-66.442"/>
<polyline fill="none" stroke="black" points="819.939,-66.442 819.939,-306.442 "/>
<path fill="none" stroke="black" d="M819.939,-306.442C819.939,-312.442 813.939,-318.442 807.939,-318.442"/>
<polyline fill="none" stroke="black" points="807.939,-318.442 584.939,-318.442 "/>
<path fill="none" stroke="black" d="M584.939,-318.442C578.939,-318.442 572.939,-312.442 572.939,-306.442"/>
<polyline fill="none" stroke="black" points="572.939,-306.442 572.939,-66.442 "/>
<path fill="none" stroke="black" d="M572.939,-66.442C572.939,-60.442 578.939,-54.442 584.939,-54.442"/>
<text text-anchor="middle" x="696.439" y="-301.842" font-family="Times Roman,serif" font-size="14.00">UsersController</text>
<polyline fill="none" stroke="black" points="572.939,-292.442 819.939,-292.442 "/>
<text text-anchor="start" x="580.939" y="-275.842" font-family="Times Roman,serif" font-size="14.00">_one_time_conditions_valid_220?</text>
<text text-anchor="start" x="580.939" y="-257.842" font-family="Times Roman,serif" font-size="14.00">_one_time_conditions_valid_224?</text>
<text text-anchor="start" x="580.939" y="-239.842" font-family="Times Roman,serif" font-size="14.00">change_password</text>
<text text-anchor="start" x="580.939" y="-221.842" font-family="Times Roman,serif" font-size="14.00">create</text>
<text text-anchor="start" x="580.939" y="-203.842" font-family="Times Roman,serif" font-size="14.00">edit</text>
<text text-anchor="start" x="580.939" y="-185.842" font-family="Times Roman,serif" font-size="14.00">forgot_password</text>
<text text-anchor="start" x="580.939" y="-167.842" font-family="Times Roman,serif" font-size="14.00">new</text>
<text text-anchor="start" x="580.939" y="-149.842" font-family="Times Roman,serif" font-size="14.00">reset_password</text>
<text text-anchor="start" x="580.939" y="-131.842" font-family="Times Roman,serif" font-size="14.00">show</text>
<text text-anchor="start" x="580.939" y="-113.842" font-family="Times Roman,serif" font-size="14.00">update</text>
<polyline fill="none" stroke="black" points="572.939,-104.442 819.939,-104.442 "/>
<polyline fill="none" stroke="black" points="572.939,-80.442 819.939,-80.442 "/>
<text text-anchor="start" x="580.939" y="-63.842" font-family="Times Roman,serif" font-size="14.00">_layout</text>
</g>
<!-- ApplicationController&#45;&gt;UsersController -->
<g id="edge20" class="edge"><title>ApplicationController&#45;&gt;UsersController</title>
<path fill="none" stroke="black" d="M535.493,-477.831C565.483,-423.535 596.601,-367.195 623.391,-318.693"/>
</g>
<!-- ChannelsController -->
<g id="node13" class="node"><title>ChannelsController</title>
<polyline fill="none" stroke="black" points="13,-972.415 236,-972.415 "/>
<path fill="none" stroke="black" d="M236,-972.415C242,-972.415 248,-978.415 248,-984.415"/>
<polyline fill="none" stroke="black" points="248,-984.415 248,-1422.41 "/>
<path fill="none" stroke="black" d="M248,-1422.41C248,-1428.41 242,-1434.41 236,-1434.41"/>
<polyline fill="none" stroke="black" points="236,-1434.41 13,-1434.41 "/>
<path fill="none" stroke="black" d="M13,-1434.41C7,-1434.41 1,-1428.41 1,-1422.41"/>
<polyline fill="none" stroke="black" points="1,-1422.41 1,-984.415 "/>
<path fill="none" stroke="black" d="M1,-984.415C1,-978.415 7,-972.415 13,-972.415"/>
<text text-anchor="middle" x="124.5" y="-1417.81" font-family="Times Roman,serif" font-size="14.00">ChannelsController</text>
<polyline fill="none" stroke="black" points="1,-1408.41 248,-1408.41 "/>
<text text-anchor="start" x="9" y="-1391.81" font-family="Times Roman,serif" font-size="14.00">_one_time_conditions_valid_300?</text>
<text text-anchor="start" x="9" y="-1373.81" font-family="Times Roman,serif" font-size="14.00">_one_time_conditions_valid_304?</text>
<text text-anchor="start" x="9" y="-1355.81" font-family="Times Roman,serif" font-size="14.00">_one_time_conditions_valid_306?</text>
<text text-anchor="start" x="9" y="-1337.81" font-family="Times Roman,serif" font-size="14.00">clear</text>
<text text-anchor="start" x="9" y="-1319.81" font-family="Times Roman,serif" font-size="14.00">compute_friendship</text>
<text text-anchor="start" x="9" y="-1301.81" font-family="Times Roman,serif" font-size="14.00">create</text>
<text text-anchor="start" x="9" y="-1283.81" font-family="Times Roman,serif" font-size="14.00">destroy</text>
<text text-anchor="start" x="9" y="-1265.81" font-family="Times Roman,serif" font-size="14.00">edit</text>
<text text-anchor="start" x="9" y="-1247.81" font-family="Times Roman,serif" font-size="14.00">friendship_list</text>
<text text-anchor="start" x="9" y="-1229.81" font-family="Times Roman,serif" font-size="14.00">import</text>
<text text-anchor="start" x="9" y="-1211.81" font-family="Times Roman,serif" font-size="14.00">index</text>
<text text-anchor="start" x="9" y="-1193.81" font-family="Times Roman,serif" font-size="14.00">indirect_location</text>
<text text-anchor="start" x="9" y="-1175.81" font-family="Times Roman,serif" font-size="14.00">new</text>
<text text-anchor="start" x="9" y="-1157.81" font-family="Times Roman,serif" font-size="14.00">post_data</text>
<text text-anchor="start" x="9" y="-1139.81" font-family="Times Roman,serif" font-size="14.00">post_profile</text>
<text text-anchor="start" x="9" y="-1121.81" font-family="Times Roman,serif" font-size="14.00">relationship_management</text>
<text text-anchor="start" x="9" y="-1103.81" font-family="Times Roman,serif" font-size="14.00">show</text>
<text text-anchor="start" x="9" y="-1085.81" font-family="Times Roman,serif" font-size="14.00">update</text>
<text text-anchor="start" x="9" y="-1067.81" font-family="Times Roman,serif" font-size="14.00">upload</text>
<polyline fill="none" stroke="black" points="1,-1058.41 248,-1058.41 "/>
<polyline fill="none" stroke="black" points="1,-1034.41 248,-1034.41 "/>
<text text-anchor="start" x="9" y="-1017.81" font-family="Times Roman,serif" font-size="14.00">_layout</text>
<text text-anchor="start" x="9" y="-999.815" font-family="Times Roman,serif" font-size="14.00">date_parsable?</text>
<text text-anchor="start" x="9" y="-981.815" font-family="Times Roman,serif" font-size="14.00">has_headers?</text>
</g>
<!-- ApplicationController&#45;&gt;ChannelsController -->
<g id="edge22" class="edge"><title>ApplicationController&#45;&gt;ChannelsController</title>
<path fill="none" stroke="black" d="M288.408,-926.034C281.26,-938.686 274.144,-951.201 267.166,-963.369 260.957,-974.198 254.553,-985.278 248.056,-996.447"/>
</g>
</g>
</svg>
