<?xml version="1.0" encoding="UTF-8" standalone="no"?>
<!DOCTYPE svg PUBLIC "-//W3C//DTD SVG 1.1//EN"
 "http://www.w3.org/Graphics/SVG/1.1/DTD/svg11.dtd">
<!-- Generated by graphviz version 2.26.3 (20100126.1600)
 -->
<!-- Title: models_diagram Pages: 1 -->
<svg width="1430pt" height="2222pt"
 viewBox="0.00 0.00 1430.00 2222.00" xmlns="http://www.w3.org/2000/svg" xmlns:xlink="http://www.w3.org/1999/xlink">
<g id="graph1" class="graph" transform="scale(1 1) rotate(0) translate(4 2218)">
<title>models_diagram</title>
<polygon fill="white" stroke="white" points="-4,5 -4,-2218 1427,-2218 1427,5 -4,5"/>
<!-- _diagram_info -->
<g id="node1" class="node"><title>_diagram_info</title>
<text text-anchor="start" x="8" y="-2073.8" font-family="Times Roman,serif" font-size="13.00">Models diagram</text>
<text text-anchor="start" x="8" y="-2056.8" font-family="Times Roman,serif" font-size="13.00">Date: Jun 20 2013 &#45; 11:14</text>
<text text-anchor="start" x="8" y="-2039.8" font-family="Times Roman,serif" font-size="13.00">Migration version: 20130410155430</text>
<text text-anchor="start" x="8" y="-2022.8" font-family="Times Roman,serif" font-size="13.00">Generated by RailRoady 1.1.0</text>
<text text-anchor="start" x="8" y="-2005.8" font-family="Times Roman,serif" font-size="13.00">http://railroady.prestonlee.com</text>
</g>
<!-- UserAdmin -->
<g id="node2" class="node"><title>UserAdmin</title>
<polyline fill="none" stroke="black" points="280,-1909 510,-1909 "/>
<path fill="none" stroke="black" d="M510,-1909C516,-1909 522,-1915 522,-1921"/>
<polyline fill="none" stroke="black" points="522,-1921 522,-2165 "/>
<path fill="none" stroke="black" d="M522,-2165C522,-2171 516,-2177 510,-2177"/>
<polyline fill="none" stroke="black" points="510,-2177 280,-2177 "/>
<path fill="none" stroke="black" d="M280,-2177C274,-2177 268,-2171 268,-2165"/>
<polyline fill="none" stroke="black" points="268,-2165 268,-1921 "/>
<path fill="none" stroke="black" d="M268,-1921C268,-1915 274,-1909 280,-1909"/>
<text text-anchor="middle" x="395" y="-2160.4" font-family="Times Roman,serif" font-size="14.00">UserAdmin</text>
<polyline fill="none" stroke="black" points="268,-2151 522,-2151 "/>
<text text-anchor="start" x="276" y="-2134.4" font-family="Times Roman,serif" font-size="14.00">id :integer</text>
<text text-anchor="start" x="276" y="-2116.4" font-family="Times Roman,serif" font-size="14.00">email :string</text>
<text text-anchor="start" x="276" y="-2098.4" font-family="Times Roman,serif" font-size="14.00">encrypted_password :string</text>
<text text-anchor="start" x="276" y="-2080.4" font-family="Times Roman,serif" font-size="14.00">reset_password_token :string</text>
<text text-anchor="start" x="276" y="-2062.4" font-family="Times Roman,serif" font-size="14.00">reset_password_sent_at :datetime</text>
<text text-anchor="start" x="276" y="-2044.4" font-family="Times Roman,serif" font-size="14.00">remember_created_at :datetime</text>
<text text-anchor="start" x="276" y="-2026.4" font-family="Times Roman,serif" font-size="14.00">sign_in_count :integer</text>
<text text-anchor="start" x="276" y="-2008.4" font-family="Times Roman,serif" font-size="14.00">current_sign_in_at :datetime</text>
<text text-anchor="start" x="276" y="-1990.4" font-family="Times Roman,serif" font-size="14.00">last_sign_in_at :datetime</text>
<text text-anchor="start" x="276" y="-1972.4" font-family="Times Roman,serif" font-size="14.00">current_sign_in_ip :string</text>
<text text-anchor="start" x="276" y="-1954.4" font-family="Times Roman,serif" font-size="14.00">last_sign_in_ip :string</text>
<text text-anchor="start" x="276" y="-1936.4" font-family="Times Roman,serif" font-size="14.00">created_at :datetime</text>
<text text-anchor="start" x="276" y="-1918.4" font-family="Times Roman,serif" font-size="14.00">updated_at :datetime</text>
</g>
<!-- Group -->
<g id="node3" class="node"><title>Group</title>
<polyline fill="none" stroke="black" points="108.5,-1090 249.5,-1090 "/>
<path fill="none" stroke="black" d="M249.5,-1090C255.5,-1090 261.5,-1096 261.5,-1102"/>
<polyline fill="none" stroke="black" points="261.5,-1102 261.5,-1256 "/>
<path fill="none" stroke="black" d="M261.5,-1256C261.5,-1262 255.5,-1268 249.5,-1268"/>
<polyline fill="none" stroke="black" points="249.5,-1268 108.5,-1268 "/>
<path fill="none" stroke="black" d="M108.5,-1268C102.5,-1268 96.5,-1262 96.5,-1256"/>
<polyline fill="none" stroke="black" points="96.5,-1256 96.5,-1102 "/>
<path fill="none" stroke="black" d="M96.5,-1102C96.5,-1096 102.5,-1090 108.5,-1090"/>
<text text-anchor="middle" x="179" y="-1251.4" font-family="Times Roman,serif" font-size="14.00">Group</text>
<polyline fill="none" stroke="black" points="96.5,-1242 261.5,-1242 "/>
<text text-anchor="start" x="104.5" y="-1225.4" font-family="Times Roman,serif" font-size="14.00">id :integer</text>
<text text-anchor="start" x="104.5" y="-1207.4" font-family="Times Roman,serif" font-size="14.00">place_id :integer</text>
<text text-anchor="start" x="104.5" y="-1189.4" font-family="Times Roman,serif" font-size="14.00">tag1 :string</text>
<text text-anchor="start" x="104.5" y="-1171.4" font-family="Times Roman,serif" font-size="14.00">tag2 :string</text>
<text text-anchor="start" x="104.5" y="-1153.4" font-family="Times Roman,serif" font-size="14.00">tag3 :string</text>
<text text-anchor="start" x="104.5" y="-1135.4" font-family="Times Roman,serif" font-size="14.00">ttl :integer</text>
<text text-anchor="start" x="104.5" y="-1117.4" font-family="Times Roman,serif" font-size="14.00">created_at :datetime</text>
<text text-anchor="start" x="104.5" y="-1099.4" font-family="Times Roman,serif" font-size="14.00">updated_at :datetime</text>
</g>
<!-- GroupRelation -->
<g id="node12" class="node"><title>GroupRelation</title>
<polyline fill="none" stroke="black" points="99.5,-163 258.5,-163 "/>
<path fill="none" stroke="black" d="M258.5,-163C264.5,-163 270.5,-169 270.5,-175"/>
<polyline fill="none" stroke="black" points="270.5,-175 270.5,-311 "/>
<path fill="none" stroke="black" d="M270.5,-311C270.5,-317 264.5,-323 258.5,-323"/>
<polyline fill="none" stroke="black" points="258.5,-323 99.5,-323 "/>
<path fill="none" stroke="black" d="M99.5,-323C93.5,-323 87.5,-317 87.5,-311"/>
<polyline fill="none" stroke="black" points="87.5,-311 87.5,-175 "/>
<path fill="none" stroke="black" d="M87.5,-175C87.5,-169 93.5,-163 99.5,-163"/>
<text text-anchor="middle" x="179" y="-306.4" font-family="Times Roman,serif" font-size="14.00">GroupRelation</text>
<polyline fill="none" stroke="black" points="87.5,-297 270.5,-297 "/>
<text text-anchor="start" x="95.5" y="-280.4" font-family="Times Roman,serif" font-size="14.00">id :integer</text>
<text text-anchor="start" x="95.5" y="-262.4" font-family="Times Roman,serif" font-size="14.00">channel_id_one :integer</text>
<text text-anchor="start" x="95.5" y="-244.4" font-family="Times Roman,serif" font-size="14.00">channel_id_two :integer</text>
<text text-anchor="start" x="95.5" y="-226.4" font-family="Times Roman,serif" font-size="14.00">ttl :integer</text>
<text text-anchor="start" x="95.5" y="-208.4" font-family="Times Roman,serif" font-size="14.00">group_id :integer</text>
<text text-anchor="start" x="95.5" y="-190.4" font-family="Times Roman,serif" font-size="14.00">created_at :datetime</text>
<text text-anchor="start" x="95.5" y="-172.4" font-family="Times Roman,serif" font-size="14.00">updated_at :datetime</text>
</g>
<!-- Group&#45;&gt;GroupRelation -->
<g id="edge2" class="edge"><title>Group&#45;&gt;GroupRelation</title>
<path fill="none" stroke="#b4fc70" d="M179,-1081.54C179,-899.365 179,-509.732 179,-333.219"/>
<ellipse fill="none" stroke="#b4fc70" cx="179" cy="-1085.68" rx="4" ry="4"/>
<polygon fill="#b4fc70" stroke="#b4fc70" points="179,-333.184 183.5,-323.184 179,-328.184 179,-323.184 179,-323.184 179,-323.184 179,-328.184 174.5,-323.184 179,-333.184 179,-333.184"/>
</g>
<!-- User -->
<g id="node4" class="node"><title>User</title>
<polyline fill="none" stroke="black" points="552,-1873 728,-1873 "/>
<path fill="none" stroke="black" d="M728,-1873C734,-1873 740,-1879 740,-1885"/>
<polyline fill="none" stroke="black" points="740,-1885 740,-2201 "/>
<path fill="none" stroke="black" d="M740,-2201C740,-2207 734,-2213 728,-2213"/>
<polyline fill="none" stroke="black" points="728,-2213 552,-2213 "/>
<path fill="none" stroke="black" d="M552,-2213C546,-2213 540,-2207 540,-2201"/>
<polyline fill="none" stroke="black" points="540,-2201 540,-1885 "/>
<path fill="none" stroke="black" d="M540,-1885C540,-1879 546,-1873 552,-1873"/>
<text text-anchor="middle" x="640" y="-2196.4" font-family="Times Roman,serif" font-size="14.00">User</text>
<polyline fill="none" stroke="black" points="540,-2187 740,-2187 "/>
<text text-anchor="start" x="548" y="-2170.4" font-family="Times Roman,serif" font-size="14.00">id :integer</text>
<text text-anchor="start" x="548" y="-2152.4" font-family="Times Roman,serif" font-size="14.00">login :string</text>
<text text-anchor="start" x="548" y="-2134.4" font-family="Times Roman,serif" font-size="14.00">email :string</text>
<text text-anchor="start" x="548" y="-2116.4" font-family="Times Roman,serif" font-size="14.00">crypted_password :string</text>
<text text-anchor="start" x="548" y="-2098.4" font-family="Times Roman,serif" font-size="14.00">password_salt :string</text>
<text text-anchor="start" x="548" y="-2080.4" font-family="Times Roman,serif" font-size="14.00">persistence_token :string</text>
<text text-anchor="start" x="548" y="-2062.4" font-family="Times Roman,serif" font-size="14.00">perishable_token :string</text>
<text text-anchor="start" x="548" y="-2044.4" font-family="Times Roman,serif" font-size="14.00">current_login_at :datetime</text>
<text text-anchor="start" x="548" y="-2026.4" font-family="Times Roman,serif" font-size="14.00">last_login_at :datetime</text>
<text text-anchor="start" x="548" y="-2008.4" font-family="Times Roman,serif" font-size="14.00">current_login_ip :string</text>
<text text-anchor="start" x="548" y="-1990.4" font-family="Times Roman,serif" font-size="14.00">last_login_ip :string</text>
<text text-anchor="start" x="548" y="-1972.4" font-family="Times Roman,serif" font-size="14.00">created_at :datetime</text>
<text text-anchor="start" x="548" y="-1954.4" font-family="Times Roman,serif" font-size="14.00">updated_at :datetime</text>
<text text-anchor="start" x="548" y="-1936.4" font-family="Times Roman,serif" font-size="14.00">time_zone :string</text>
<text text-anchor="start" x="548" y="-1918.4" font-family="Times Roman,serif" font-size="14.00">home_location :string</text>
<text text-anchor="start" x="548" y="-1900.4" font-family="Times Roman,serif" font-size="14.00">work_place :string</text>
<text text-anchor="start" x="548" y="-1882.4" font-family="Times Roman,serif" font-size="14.00">admin :integer</text>
</g>
<!-- Channel -->
<g id="node5" class="node"><title>Channel</title>
<polyline fill="none" stroke="black" points="483.5,-523 644.5,-523 "/>
<path fill="none" stroke="black" d="M644.5,-523C650.5,-523 656.5,-529 656.5,-535"/>
<polyline fill="none" stroke="black" points="656.5,-535 656.5,-1823 "/>
<path fill="none" stroke="black" d="M656.5,-1823C656.5,-1829 650.5,-1835 644.5,-1835"/>
<polyline fill="none" stroke="black" points="644.5,-1835 483.5,-1835 "/>
<path fill="none" stroke="black" d="M483.5,-1835C477.5,-1835 471.5,-1829 471.5,-1823"/>
<polyline fill="none" stroke="black" points="471.5,-1823 471.5,-535 "/>
<path fill="none" stroke="black" d="M471.5,-535C471.5,-529 477.5,-523 483.5,-523"/>
<text text-anchor="middle" x="564" y="-1818.4" font-family="Times Roman,serif" font-size="14.00">Channel</text>
<polyline fill="none" stroke="black" points="471.5,-1809 656.5,-1809 "/>
<text text-anchor="start" x="479.5" y="-1792.4" font-family="Times Roman,serif" font-size="14.00">id :integer</text>
<text text-anchor="start" x="479.5" y="-1774.4" font-family="Times Roman,serif" font-size="14.00">user_id :integer</text>
<text text-anchor="start" x="479.5" y="-1756.4" font-family="Times Roman,serif" font-size="14.00">name :string</text>
<text text-anchor="start" x="479.5" y="-1738.4" font-family="Times Roman,serif" font-size="14.00">description :string</text>
<text text-anchor="start" x="479.5" y="-1720.4" font-family="Times Roman,serif" font-size="14.00">field1 :string</text>
<text text-anchor="start" x="479.5" y="-1702.4" font-family="Times Roman,serif" font-size="14.00">field2 :string</text>
<text text-anchor="start" x="479.5" y="-1684.4" font-family="Times Roman,serif" font-size="14.00">field3 :string</text>
<text text-anchor="start" x="479.5" y="-1666.4" font-family="Times Roman,serif" font-size="14.00">field4 :string</text>
<text text-anchor="start" x="479.5" y="-1648.4" font-family="Times Roman,serif" font-size="14.00">field5 :string</text>
<text text-anchor="start" x="479.5" y="-1630.4" font-family="Times Roman,serif" font-size="14.00">field6 :string</text>
<text text-anchor="start" x="479.5" y="-1612.4" font-family="Times Roman,serif" font-size="14.00">field7 :string</text>
<text text-anchor="start" x="479.5" y="-1594.4" font-family="Times Roman,serif" font-size="14.00">field8 :string</text>
<text text-anchor="start" x="479.5" y="-1576.4" font-family="Times Roman,serif" font-size="14.00">field9 :string</text>
<text text-anchor="start" x="479.5" y="-1558.4" font-family="Times Roman,serif" font-size="14.00">field10 :string</text>
<text text-anchor="start" x="479.5" y="-1540.4" font-family="Times Roman,serif" font-size="14.00">field11 :string</text>
<text text-anchor="start" x="479.5" y="-1522.4" font-family="Times Roman,serif" font-size="14.00">field12 :string</text>
<text text-anchor="start" x="479.5" y="-1504.4" font-family="Times Roman,serif" font-size="14.00">field13 :string</text>
<text text-anchor="start" x="479.5" y="-1486.4" font-family="Times Roman,serif" font-size="14.00">field14 :string</text>
<text text-anchor="start" x="479.5" y="-1468.4" font-family="Times Roman,serif" font-size="14.00">field15 :string</text>
<text text-anchor="start" x="479.5" y="-1450.4" font-family="Times Roman,serif" font-size="14.00">field16 :string</text>
<text text-anchor="start" x="479.5" y="-1432.4" font-family="Times Roman,serif" font-size="14.00">scale1 :integer</text>
<text text-anchor="start" x="479.5" y="-1414.4" font-family="Times Roman,serif" font-size="14.00">scale2 :integer</text>
<text text-anchor="start" x="479.5" y="-1396.4" font-family="Times Roman,serif" font-size="14.00">scale3 :integer</text>
<text text-anchor="start" x="479.5" y="-1378.4" font-family="Times Roman,serif" font-size="14.00">scale4 :integer</text>
<text text-anchor="start" x="479.5" y="-1360.4" font-family="Times Roman,serif" font-size="14.00">scale5 :integer</text>
<text text-anchor="start" x="479.5" y="-1342.4" font-family="Times Roman,serif" font-size="14.00">scale6 :integer</text>
<text text-anchor="start" x="479.5" y="-1324.4" font-family="Times Roman,serif" font-size="14.00">scale7 :integer</text>
<text text-anchor="start" x="479.5" y="-1306.4" font-family="Times Roman,serif" font-size="14.00">scale8 :integer</text>
<text text-anchor="start" x="479.5" y="-1288.4" font-family="Times Roman,serif" font-size="14.00">scale9 :integer</text>
<text text-anchor="start" x="479.5" y="-1270.4" font-family="Times Roman,serif" font-size="14.00">scale10 :integer</text>
<text text-anchor="start" x="479.5" y="-1252.4" font-family="Times Roman,serif" font-size="14.00">scale11 :integer</text>
<text text-anchor="start" x="479.5" y="-1234.4" font-family="Times Roman,serif" font-size="14.00">scale12 :integer</text>
<text text-anchor="start" x="479.5" y="-1216.4" font-family="Times Roman,serif" font-size="14.00">scale13 :integer</text>
<text text-anchor="start" x="479.5" y="-1198.4" font-family="Times Roman,serif" font-size="14.00">scale14 :integer</text>
<text text-anchor="start" x="479.5" y="-1180.4" font-family="Times Roman,serif" font-size="14.00">scale15 :integer</text>
<text text-anchor="start" x="479.5" y="-1162.4" font-family="Times Roman,serif" font-size="14.00">scale16 :integer</text>
<text text-anchor="start" x="479.5" y="-1144.4" font-family="Times Roman,serif" font-size="14.00">created_at :datetime</text>
<text text-anchor="start" x="479.5" y="-1126.4" font-family="Times Roman,serif" font-size="14.00">updated_at :datetime</text>
<text text-anchor="start" x="479.5" y="-1108.4" font-family="Times Roman,serif" font-size="14.00">last_entry_id :integer</text>
<text text-anchor="start" x="479.5" y="-1090.4" font-family="Times Roman,serif" font-size="14.00">public_flag :boolean</text>
<text text-anchor="start" x="479.5" y="-1072.4" font-family="Times Roman,serif" font-size="14.00">options1 :string</text>
<text text-anchor="start" x="479.5" y="-1054.4" font-family="Times Roman,serif" font-size="14.00">options2 :string</text>
<text text-anchor="start" x="479.5" y="-1036.4" font-family="Times Roman,serif" font-size="14.00">options3 :string</text>
<text text-anchor="start" x="479.5" y="-1018.4" font-family="Times Roman,serif" font-size="14.00">options4 :string</text>
<text text-anchor="start" x="479.5" y="-1000.4" font-family="Times Roman,serif" font-size="14.00">options5 :string</text>
<text text-anchor="start" x="479.5" y="-982.4" font-family="Times Roman,serif" font-size="14.00">options6 :string</text>
<text text-anchor="start" x="479.5" y="-964.4" font-family="Times Roman,serif" font-size="14.00">options7 :string</text>
<text text-anchor="start" x="479.5" y="-946.4" font-family="Times Roman,serif" font-size="14.00">options8 :string</text>
<text text-anchor="start" x="479.5" y="-928.4" font-family="Times Roman,serif" font-size="14.00">options9 :string</text>
<text text-anchor="start" x="479.5" y="-910.4" font-family="Times Roman,serif" font-size="14.00">options10 :string</text>
<text text-anchor="start" x="479.5" y="-892.4" font-family="Times Roman,serif" font-size="14.00">options11 :string</text>
<text text-anchor="start" x="479.5" y="-874.4" font-family="Times Roman,serif" font-size="14.00">options12 :string</text>
<text text-anchor="start" x="479.5" y="-856.4" font-family="Times Roman,serif" font-size="14.00">options13 :string</text>
<text text-anchor="start" x="479.5" y="-838.4" font-family="Times Roman,serif" font-size="14.00">options14 :string</text>
<text text-anchor="start" x="479.5" y="-820.4" font-family="Times Roman,serif" font-size="14.00">options15 :string</text>
<text text-anchor="start" x="479.5" y="-802.4" font-family="Times Roman,serif" font-size="14.00">options16 :string</text>
<text text-anchor="start" x="479.5" y="-784.4" font-family="Times Roman,serif" font-size="14.00">model :string</text>
<text text-anchor="start" x="479.5" y="-766.4" font-family="Times Roman,serif" font-size="14.00">brand :string</text>
<text text-anchor="start" x="479.5" y="-748.4" font-family="Times Roman,serif" font-size="14.00">device_type :string</text>
<text text-anchor="start" x="479.5" y="-730.4" font-family="Times Roman,serif" font-size="14.00">mobility_status :boolean</text>
<text text-anchor="start" x="479.5" y="-712.4" font-family="Times Roman,serif" font-size="14.00">location :integer</text>
<text text-anchor="start" x="479.5" y="-694.4" font-family="Times Roman,serif" font-size="14.00">location_name :string</text>
<text text-anchor="start" x="479.5" y="-676.4" font-family="Times Roman,serif" font-size="14.00">location_type :integer</text>
<text text-anchor="start" x="479.5" y="-658.4" font-family="Times Roman,serif" font-size="14.00">aut_ind_loc :integer</text>
<text text-anchor="start" x="479.5" y="-640.4" font-family="Times Roman,serif" font-size="14.00">oor_flag :boolean</text>
<text text-anchor="start" x="479.5" y="-622.4" font-family="Times Roman,serif" font-size="14.00">por_flag :boolean</text>
<text text-anchor="start" x="479.5" y="-604.4" font-family="Times Roman,serif" font-size="14.00">cwor_flag :boolean</text>
<text text-anchor="start" x="479.5" y="-586.4" font-family="Times Roman,serif" font-size="14.00">sor_flag :boolean</text>
<text text-anchor="start" x="479.5" y="-568.4" font-family="Times Roman,serif" font-size="14.00">clor_flag :boolean</text>
<text text-anchor="start" x="479.5" y="-550.4" font-family="Times Roman,serif" font-size="14.00">bt_mac_address :string</text>
<text text-anchor="start" x="479.5" y="-532.4" font-family="Times Roman,serif" font-size="14.00">wf_mac_address :string</text>
</g>
<!-- User&#45;&gt;Channel -->
<g id="edge4" class="edge"><title>User&#45;&gt;Channel</title>
<path fill="none" stroke="#2672b9" d="M624.322,-1864.77C623.765,-1858.43 623.198,-1851.98 622.621,-1845.43"/>
<ellipse fill="none" stroke="#2672b9" cx="624.68" cy="-1868.83" rx="4" ry="4"/>
<polygon fill="#2672b9" stroke="#2672b9" points="622.585,-1845.01 626.191,-1834.66 622.146,-1840.03 621.708,-1835.05 621.708,-1835.05 621.708,-1835.05 622.146,-1840.03 617.226,-1835.45 622.585,-1845.01 622.585,-1845.01"/>
</g>
<!-- ApiKey -->
<g id="node9" class="node"><title>ApiKey</title>
<polyline fill="none" stroke="black" points="675.5,-154 816.5,-154 "/>
<path fill="none" stroke="black" d="M816.5,-154C822.5,-154 828.5,-160 828.5,-166"/>
<polyline fill="none" stroke="black" points="828.5,-166 828.5,-320 "/>
<path fill="none" stroke="black" d="M828.5,-320C828.5,-326 822.5,-332 816.5,-332"/>
<polyline fill="none" stroke="black" points="816.5,-332 675.5,-332 "/>
<path fill="none" stroke="black" d="M675.5,-332C669.5,-332 663.5,-326 663.5,-320"/>
<polyline fill="none" stroke="black" points="663.5,-320 663.5,-166 "/>
<path fill="none" stroke="black" d="M663.5,-166C663.5,-160 669.5,-154 675.5,-154"/>
<text text-anchor="middle" x="746" y="-315.4" font-family="Times Roman,serif" font-size="14.00">ApiKey</text>
<polyline fill="none" stroke="black" points="663.5,-306 828.5,-306 "/>
<text text-anchor="start" x="671.5" y="-289.4" font-family="Times Roman,serif" font-size="14.00">id :integer</text>
<text text-anchor="start" x="671.5" y="-271.4" font-family="Times Roman,serif" font-size="14.00">api_key :string</text>
<text text-anchor="start" x="671.5" y="-253.4" font-family="Times Roman,serif" font-size="14.00">channel_id :integer</text>
<text text-anchor="start" x="671.5" y="-235.4" font-family="Times Roman,serif" font-size="14.00">user_id :integer</text>
<text text-anchor="start" x="671.5" y="-217.4" font-family="Times Roman,serif" font-size="14.00">write_flag :boolean</text>
<text text-anchor="start" x="671.5" y="-199.4" font-family="Times Roman,serif" font-size="14.00">created_at :datetime</text>
<text text-anchor="start" x="671.5" y="-181.4" font-family="Times Roman,serif" font-size="14.00">updated_at :datetime</text>
<text text-anchor="start" x="671.5" y="-163.4" font-family="Times Roman,serif" font-size="14.00">note :string</text>
</g>
<!-- User&#45;&gt;ApiKey -->
<g id="edge6" class="edge"><title>User&#45;&gt;ApiKey</title>
<path fill="none" stroke="#a3a46f" d="M662.335,-1864.65C663.3,-1854.97 664.197,-1845.37 665,-1836 713.338,-1272 736.126,-593.004 743.347,-342.271"/>
<ellipse fill="none" stroke="#a3a46f" cx="661.913" cy="-1868.83" rx="4" ry="4"/>
<polygon fill="#a3a46f" stroke="#a3a46f" points="743.352,-342.089 748.137,-332.222 743.495,-337.091 743.638,-332.093 743.638,-332.093 743.638,-332.093 743.495,-337.091 739.14,-331.964 743.352,-342.089 743.352,-342.089"/>
</g>
<!-- Relationship -->
<g id="node7" class="node"><title>Relationship</title>
<polyline fill="none" stroke="black" points="299.5,-172 452.5,-172 "/>
<path fill="none" stroke="black" d="M452.5,-172C458.5,-172 464.5,-178 464.5,-184"/>
<polyline fill="none" stroke="black" points="464.5,-184 464.5,-302 "/>
<path fill="none" stroke="black" d="M464.5,-302C464.5,-308 458.5,-314 452.5,-314"/>
<polyline fill="none" stroke="black" points="452.5,-314 299.5,-314 "/>
<path fill="none" stroke="black" d="M299.5,-314C293.5,-314 287.5,-308 287.5,-302"/>
<polyline fill="none" stroke="black" points="287.5,-302 287.5,-184 "/>
<path fill="none" stroke="black" d="M287.5,-184C287.5,-178 293.5,-172 299.5,-172"/>
<text text-anchor="middle" x="376" y="-297.4" font-family="Times Roman,serif" font-size="14.00">Relationship</text>
<polyline fill="none" stroke="black" points="287.5,-288 464.5,-288 "/>
<text text-anchor="start" x="295.5" y="-271.4" font-family="Times Roman,serif" font-size="14.00">id :integer</text>
<text text-anchor="start" x="295.5" y="-253.4" font-family="Times Roman,serif" font-size="14.00">guid_one :integer</text>
<text text-anchor="start" x="295.5" y="-235.4" font-family="Times Roman,serif" font-size="14.00">relation :string</text>
<text text-anchor="start" x="295.5" y="-217.4" font-family="Times Roman,serif" font-size="14.00">guid_two :integer</text>
<text text-anchor="start" x="295.5" y="-199.4" font-family="Times Roman,serif" font-size="14.00">time_created :datetime</text>
<text text-anchor="start" x="295.5" y="-181.4" font-family="Times Roman,serif" font-size="14.00">updated_at :datetime</text>
</g>
<!-- Channel&#45;&gt;Relationship -->
<g id="edge12" class="edge"><title>Channel&#45;&gt;Relationship</title>
<path fill="none" stroke="#1bca2a" d="M469.781,-709.908C439.91,-561.188 410.068,-412.616 392.322,-324.263"/>
<ellipse fill="none" stroke="#1bca2a" cx="470.658" cy="-714.276" rx="4.00001" ry="4.00001"/>
<polygon fill="#1bca2a" stroke="#1bca2a" points="392.294,-324.124 394.737,-313.433 391.31,-319.222 390.325,-314.32 390.325,-314.32 390.325,-314.32 391.31,-319.222 385.913,-315.206 392.294,-324.124 392.294,-324.124"/>
</g>
<!-- Channel&#45;&gt;ApiKey -->
<g id="edge10" class="edge"><title>Channel&#45;&gt;ApiKey</title>
<path fill="none" stroke="#ed6249" d="M658.071,-695.208C684.147,-561.103 709.886,-428.729 726.711,-342.199"/>
<ellipse fill="none" stroke="#ed6249" cx="657.296" cy="-699.19" rx="4.00001" ry="4.00001"/>
<polygon fill="#ed6249" stroke="#ed6249" points="726.759,-341.955 733.085,-332.998 727.713,-337.047 728.667,-332.139 728.667,-332.139 728.667,-332.139 727.713,-337.047 724.25,-331.28 726.759,-341.955 726.759,-341.955"/>
</g>
<!-- Feed -->
<g id="node11" class="node"><title>Feed</title>
<polyline fill="none" stroke="black" points="493.5,-1 634.5,-1 "/>
<path fill="none" stroke="black" d="M634.5,-1C640.5,-1 646.5,-7 646.5,-13"/>
<polyline fill="none" stroke="black" points="646.5,-13 646.5,-473 "/>
<path fill="none" stroke="black" d="M646.5,-473C646.5,-479 640.5,-485 634.5,-485"/>
<polyline fill="none" stroke="black" points="634.5,-485 493.5,-485 "/>
<path fill="none" stroke="black" d="M493.5,-485C487.5,-485 481.5,-479 481.5,-473"/>
<polyline fill="none" stroke="black" points="481.5,-473 481.5,-13 "/>
<path fill="none" stroke="black" d="M481.5,-13C481.5,-7 487.5,-1 493.5,-1"/>
<text text-anchor="middle" x="564" y="-468.4" font-family="Times Roman,serif" font-size="14.00">Feed</text>
<polyline fill="none" stroke="black" points="481.5,-459 646.5,-459 "/>
<text text-anchor="start" x="489.5" y="-442.4" font-family="Times Roman,serif" font-size="14.00">id :integer</text>
<text text-anchor="start" x="489.5" y="-424.4" font-family="Times Roman,serif" font-size="14.00">channel_id :integer</text>
<text text-anchor="start" x="489.5" y="-406.4" font-family="Times Roman,serif" font-size="14.00">raw_data :text</text>
<text text-anchor="start" x="489.5" y="-388.4" font-family="Times Roman,serif" font-size="14.00">field1 :string</text>
<text text-anchor="start" x="489.5" y="-370.4" font-family="Times Roman,serif" font-size="14.00">field2 :string</text>
<text text-anchor="start" x="489.5" y="-352.4" font-family="Times Roman,serif" font-size="14.00">field3 :string</text>
<text text-anchor="start" x="489.5" y="-334.4" font-family="Times Roman,serif" font-size="14.00">field4 :string</text>
<text text-anchor="start" x="489.5" y="-316.4" font-family="Times Roman,serif" font-size="14.00">field5 :string</text>
<text text-anchor="start" x="489.5" y="-298.4" font-family="Times Roman,serif" font-size="14.00">field6 :string</text>
<text text-anchor="start" x="489.5" y="-280.4" font-family="Times Roman,serif" font-size="14.00">field7 :string</text>
<text text-anchor="start" x="489.5" y="-262.4" font-family="Times Roman,serif" font-size="14.00">field8 :string</text>
<text text-anchor="start" x="489.5" y="-244.4" font-family="Times Roman,serif" font-size="14.00">field9 :string</text>
<text text-anchor="start" x="489.5" y="-226.4" font-family="Times Roman,serif" font-size="14.00">field10 :string</text>
<text text-anchor="start" x="489.5" y="-208.4" font-family="Times Roman,serif" font-size="14.00">field11 :string</text>
<text text-anchor="start" x="489.5" y="-190.4" font-family="Times Roman,serif" font-size="14.00">field12 :string</text>
<text text-anchor="start" x="489.5" y="-172.4" font-family="Times Roman,serif" font-size="14.00">field13 :string</text>
<text text-anchor="start" x="489.5" y="-154.4" font-family="Times Roman,serif" font-size="14.00">field14 :string</text>
<text text-anchor="start" x="489.5" y="-136.4" font-family="Times Roman,serif" font-size="14.00">field15 :string</text>
<text text-anchor="start" x="489.5" y="-118.4" font-family="Times Roman,serif" font-size="14.00">field16 :string</text>
<text text-anchor="start" x="489.5" y="-100.4" font-family="Times Roman,serif" font-size="14.00">gps_precision :float</text>
<text text-anchor="start" x="489.5" y="-82.4" font-family="Times Roman,serif" font-size="14.00">created_at :datetime</text>
<text text-anchor="start" x="489.5" y="-64.4" font-family="Times Roman,serif" font-size="14.00">updated_at :datetime</text>
<text text-anchor="start" x="489.5" y="-46.4" font-family="Times Roman,serif" font-size="14.00">entry_id :integer</text>
<text text-anchor="start" x="489.5" y="-28.4" font-family="Times Roman,serif" font-size="14.00">status :string</text>
<text text-anchor="start" x="489.5" y="-10.4" font-family="Times Roman,serif" font-size="14.00">elevation :string</text>
</g>
<!-- Channel&#45;&gt;Feed -->
<g id="edge8" class="edge"><title>Channel&#45;&gt;Feed</title>
<path fill="none" stroke="#8440b8" d="M564,-514.769C564,-508.157 564,-501.609 564,-495.131"/>
<ellipse fill="none" stroke="#8440b8" cx="564" cy="-518.88" rx="4" ry="4"/>
<polygon fill="#8440b8" stroke="#8440b8" points="564,-495.012 568.5,-485.012 564,-490.012 564,-485.012 564,-485.012 564,-485.012 564,-490.012 559.5,-485.012 564,-495.012 564,-495.012"/>
</g>
<!-- Channel&#45;&gt;GroupRelation -->
<g id="edge14" class="edge"><title>Channel&#45;&gt;GroupRelation</title>
<path fill="none" stroke="#eab8e6" d="M468.332,-946.416C386.636,-747.798 273.477,-472.691 215.881,-332.664"/>
<ellipse fill="none" stroke="#eab8e6" cx="469.894" cy="-950.212" rx="4.00002" ry="4.00002"/>
<polygon fill="#eab8e6" stroke="#eab8e6" points="215.804,-332.477 216.162,-321.517 213.902,-327.853 212,-323.229 212,-323.229 212,-323.229 213.902,-327.853 207.838,-324.94 215.804,-332.477 215.804,-332.477"/>
</g>
<!-- Mailer -->
<g id="node6" class="node"><title>Mailer</title>
<polygon fill="none" stroke="black" points="830.5,-1153 830.5,-1205 889.5,-1205 889.5,-1153 830.5,-1153"/>
<text text-anchor="middle" x="860" y="-1188.4" font-family="Times Roman,serif" font-size="14.00">Mailer</text>
<polyline fill="none" stroke="black" points="830.5,-1179 889.5,-1179 "/>
<text text-anchor="middle" x="860" y="-1162.4" font-family="Times Roman,serif" font-size="14.00"> </text>
</g>
<!-- UserSession -->
<g id="node8" class="node"><title>UserSession</title>
<polygon fill="none" stroke="black" points="1060,-1153 1060,-1205 1160,-1205 1160,-1153 1060,-1153"/>
<text text-anchor="middle" x="1110" y="-1188.4" font-family="Times Roman,serif" font-size="14.00">UserSession</text>
<polyline fill="none" stroke="black" points="1060,-1179 1160,-1179 "/>
<text text-anchor="middle" x="1110" y="-1162.4" font-family="Times Roman,serif" font-size="14.00"> </text>
</g>
<!-- Place -->
<g id="node10" class="node"><title>Place</title>
<polyline fill="none" stroke="black" points="1269.5,-1891 1410.5,-1891 "/>
<path fill="none" stroke="black" d="M1410.5,-1891C1416.5,-1891 1422.5,-1897 1422.5,-1903"/>
<polyline fill="none" stroke="black" points="1422.5,-1903 1422.5,-2183 "/>
<path fill="none" stroke="black" d="M1422.5,-2183C1422.5,-2189 1416.5,-2195 1410.5,-2195"/>
<polyline fill="none" stroke="black" points="1410.5,-2195 1269.5,-2195 "/>
<path fill="none" stroke="black" d="M1269.5,-2195C1263.5,-2195 1257.5,-2189 1257.5,-2183"/>
<polyline fill="none" stroke="black" points="1257.5,-2183 1257.5,-1903 "/>
<path fill="none" stroke="black" d="M1257.5,-1903C1257.5,-1897 1263.5,-1891 1269.5,-1891"/>
<text text-anchor="middle" x="1340" y="-2178.4" font-family="Times Roman,serif" font-size="14.00">Place</text>
<polyline fill="none" stroke="black" points="1257.5,-2169 1422.5,-2169 "/>
<text text-anchor="start" x="1265.5" y="-2152.4" font-family="Times Roman,serif" font-size="14.00">id :integer</text>
<text text-anchor="start" x="1265.5" y="-2134.4" font-family="Times Roman,serif" font-size="14.00">name :string</text>
<text text-anchor="start" x="1265.5" y="-2116.4" font-family="Times Roman,serif" font-size="14.00">address :string</text>
<text text-anchor="start" x="1265.5" y="-2098.4" font-family="Times Roman,serif" font-size="14.00">creator_id :integer</text>
<text text-anchor="start" x="1265.5" y="-2080.4" font-family="Times Roman,serif" font-size="14.00">latitude :float</text>
<text text-anchor="start" x="1265.5" y="-2062.4" font-family="Times Roman,serif" font-size="14.00">longitude :float</text>
<text text-anchor="start" x="1265.5" y="-2044.4" font-family="Times Roman,serif" font-size="14.00">range :integer</text>
<text text-anchor="start" x="1265.5" y="-2026.4" font-family="Times Roman,serif" font-size="14.00">floor :integer</text>
<text text-anchor="start" x="1265.5" y="-2008.4" font-family="Times Roman,serif" font-size="14.00">public :boolean</text>
<text text-anchor="start" x="1265.5" y="-1990.4" font-family="Times Roman,serif" font-size="14.00">home :boolean</text>
<text text-anchor="start" x="1265.5" y="-1972.4" font-family="Times Roman,serif" font-size="14.00">work :boolean</text>
<text text-anchor="start" x="1265.5" y="-1954.4" font-family="Times Roman,serif" font-size="14.00">superplace :integer</text>
<text text-anchor="start" x="1265.5" y="-1936.4" font-family="Times Roman,serif" font-size="14.00">gmaps :boolean</text>
<text text-anchor="start" x="1265.5" y="-1918.4" font-family="Times Roman,serif" font-size="14.00">created_at :datetime</text>
<text text-anchor="start" x="1265.5" y="-1900.4" font-family="Times Roman,serif" font-size="14.00">updated_at :datetime</text>
</g>
<!-- ActionMailer::Base -->
<g id="node20" class="node"><title>ActionMailer::Base</title>
<ellipse fill="none" stroke="black" cx="860" cy="-2043" rx="101.823" ry="18.3848"/>
<text text-anchor="middle" x="860" y="-2039.4" font-family="Times Roman,serif" font-size="14.00">ActionMailer::Base</text>
</g>
<!-- ActionMailer::Base&#45;&gt;Mailer -->
<g id="edge16" class="edge"><title>ActionMailer::Base&#45;&gt;Mailer</title>
<path fill="none" stroke="black" d="M860,-2024.15C860,-1912.24 860,-1335.52 860,-1205.2"/>
</g>
<!-- Authlogic::Session::Base -->
<g id="node22" class="node"><title>Authlogic::Session::Base</title>
<ellipse fill="none" stroke="black" cx="1110" cy="-2043" rx="130.108" ry="18.3848"/>
<text text-anchor="middle" x="1110" y="-2039.4" font-family="Times Roman,serif" font-size="14.00">Authlogic::Session::Base</text>
</g>
<!-- Authlogic::Session::Base&#45;&gt;UserSession -->
<g id="edge18" class="edge"><title>Authlogic::Session::Base&#45;&gt;UserSession</title>
<path fill="none" stroke="black" d="M1110,-2024.15C1110,-1912.24 1110,-1335.52 1110,-1205.2"/>
</g>
</g>
</svg>
