<?xml version="1.0" encoding="UTF-8" standalone="no"?>
<!DOCTYPE svg PUBLIC "-//W3C//DTD SVG 1.1//EN"
 "http://www.w3.org/Graphics/SVG/1.1/DTD/svg11.dtd">
<!-- Generated by graphviz version 2.26.3 (20100126.1600)
 -->
<!-- Title: models_diagram Pages: 1 -->
<svg width="1084pt" height="250pt"
 viewBox="0.00 0.00 1084.00 250.00" xmlns="http://www.w3.org/2000/svg" xmlns:xlink="http://www.w3.org/1999/xlink">
<g id="graph1" class="graph" transform="scale(1 1) rotate(0) translate(4 246)">
<title>models_diagram</title>
<polygon fill="white" stroke="white" points="-4,5 -4,-246 1081,-246 1081,5 -4,5"/>
<!-- _diagram_info -->
<g id="node1" class="node"><title>_diagram_info</title>
<text text-anchor="start" x="8" y="-225.8" font-family="Times Roman,serif" font-size="13.00">Models diagram</text>
<text text-anchor="start" x="8" y="-208.8" font-family="Times Roman,serif" font-size="13.00">Date: Jun 20 2013 &#45; 11:14</text>
<text text-anchor="start" x="8" y="-191.8" font-family="Times Roman,serif" font-size="13.00">Migration version: 20130410155430</text>
<text text-anchor="start" x="8" y="-174.8" font-family="Times Roman,serif" font-size="13.00">Generated by RailRoady 1.1.0</text>
<text text-anchor="start" x="8" y="-157.8" font-family="Times Roman,serif" font-size="13.00">http://railroady.prestonlee.com</text>
</g>
<!-- UserAdmin -->
<g id="node2" class="node"><title>UserAdmin</title>
<ellipse fill="none" stroke="black" cx="333" cy="-195" rx="65.0538" ry="18.3848"/>
<text text-anchor="middle" x="333" y="-191.4" font-family="Times Roman,serif" font-size="14.00">UserAdmin</text>
</g>
<!-- Group -->
<g id="node3" class="node"><title>Group</title>
<ellipse fill="none" stroke="black" cx="112" cy="-93" rx="41.2167" ry="18.3848"/>
<text text-anchor="middle" x="112" y="-89.4" font-family="Times Roman,serif" font-size="14.00">Group</text>
</g>
<!-- GroupRelation -->
<g id="node12" class="node"><title>GroupRelation</title>
<ellipse fill="none" stroke="black" cx="112" cy="-19" rx="82.0244" ry="18.3848"/>
<text text-anchor="middle" x="112" y="-15.4" font-family="Times Roman,serif" font-size="14.00">GroupRelation</text>
</g>
<!-- Group&#45;&gt;GroupRelation -->
<g id="edge2" class="edge"><title>Group&#45;&gt;GroupRelation</title>
<path fill="none" stroke="#14ad32" d="M112,-66.309C112,-60.3769 112,-54.0606 112,-48.0396"/>
<ellipse fill="none" stroke="#14ad32" cx="112" cy="-70.3267" rx="4" ry="4"/>
<polygon fill="#14ad32" stroke="#14ad32" points="112,-47.6674 116.5,-37.6673 112,-42.6674 112,-37.6674 112,-37.6674 112,-37.6674 112,-42.6674 107.5,-37.6674 112,-47.6674 112,-47.6674"/>
</g>
<!-- User -->
<g id="node4" class="node"><title>User</title>
<ellipse fill="none" stroke="black" cx="450" cy="-195" rx="33.9411" ry="18.3848"/>
<text text-anchor="middle" x="450" y="-191.4" font-family="Times Roman,serif" font-size="14.00">User</text>
</g>
<!-- Channel -->
<g id="node5" class="node"><title>Channel</title>
<ellipse fill="none" stroke="black" cx="406" cy="-93" rx="51.8276" ry="18.3848"/>
<text text-anchor="middle" x="406" y="-89.4" font-family="Times Roman,serif" font-size="14.00">Channel</text>
</g>
<!-- User&#45;&gt;Channel -->
<g id="edge4" class="edge"><title>User&#45;&gt;Channel</title>
<path fill="none" stroke="#916bee" d="M438.965,-169.419C432.579,-154.616 424.538,-135.975 417.997,-120.81"/>
<ellipse fill="none" stroke="#916bee" cx="440.549" cy="-173.092" rx="4.00002" ry="4.00002"/>
<polygon fill="#916bee" stroke="#916bee" points="417.908,-120.604 418.079,-109.639 415.927,-116.013 413.947,-111.422 413.947,-111.422 413.947,-111.422 415.927,-116.013 409.815,-113.204 417.908,-120.604 417.908,-120.604"/>
</g>
<!-- ApiKey -->
<g id="node9" class="node"><title>ApiKey</title>
<ellipse fill="none" stroke="black" cx="502" cy="-19" rx="44.0472" ry="18.3848"/>
<text text-anchor="middle" x="502" y="-15.4" font-family="Times Roman,serif" font-size="14.00">ApiKey</text>
</g>
<!-- User&#45;&gt;ApiKey -->
<g id="edge6" class="edge"><title>User&#45;&gt;ApiKey</title>
<path fill="none" stroke="#6b1177" d="M457.865,-168.381C467.523,-135.691 483.834,-80.4859 493.691,-47.1225"/>
<ellipse fill="none" stroke="#6b1177" cx="456.6" cy="-172.661" rx="4.00001" ry="4.00001"/>
<polygon fill="#6b1177" stroke="#6b1177" points="493.695,-47.1088 500.844,-38.7937 495.112,-42.3137 496.529,-37.5186 496.529,-37.5186 496.529,-37.5186 495.112,-42.3137 492.213,-36.2435 493.695,-47.1088 493.695,-47.1088"/>
</g>
<!-- Relationship -->
<g id="node7" class="node"><title>Relationship</title>
<ellipse fill="none" stroke="black" cx="283" cy="-19" rx="70.9184" ry="18.3848"/>
<text text-anchor="middle" x="283" y="-15.4" font-family="Times Roman,serif" font-size="14.00">Relationship</text>
</g>
<!-- Channel&#45;&gt;Relationship -->
<g id="edge12" class="edge"><title>Channel&#45;&gt;Relationship</title>
<path fill="none" stroke="#8ab21d" d="M372.229,-72.6822C356.104,-62.9813 336.763,-51.3452 320.216,-41.3902"/>
<ellipse fill="none" stroke="#8ab21d" cx="375.883" cy="-74.881" rx="4.00002" ry="4.00002"/>
<polygon fill="#8ab21d" stroke="#8ab21d" points="319.918,-41.2107 313.669,-32.1995 315.633,-38.6331 311.349,-36.0555 311.349,-36.0555 311.349,-36.0555 315.633,-38.6331 309.029,-39.9114 319.918,-41.2107 319.918,-41.2107"/>
</g>
<!-- Channel&#45;&gt;ApiKey -->
<g id="edge10" class="edge"><title>Channel&#45;&gt;ApiKey</title>
<path fill="none" stroke="#ec47b8" d="M434.833,-70.7746C446.853,-61.5091 460.792,-50.7644 472.846,-41.4728"/>
<ellipse fill="none" stroke="#ec47b8" cx="431.434" cy="-73.3949" rx="4.00002" ry="4.00002"/>
<polygon fill="#ec47b8" stroke="#ec47b8" points="472.923,-41.4134 483.591,-38.8724 476.883,-38.3609 480.843,-35.3083 480.843,-35.3083 480.843,-35.3083 476.883,-38.3609 478.096,-31.7443 472.923,-41.4134 472.923,-41.4134"/>
</g>
<!-- Feed -->
<g id="node11" class="node"><title>Feed</title>
<ellipse fill="none" stroke="black" cx="406" cy="-19" rx="34.1461" ry="18.3848"/>
<text text-anchor="middle" x="406" y="-15.4" font-family="Times Roman,serif" font-size="14.00">Feed</text>
</g>
<!-- Channel&#45;&gt;Feed -->
<g id="edge8" class="edge"><title>Channel&#45;&gt;Feed</title>
<path fill="none" stroke="#67270b" d="M406,-66.309C406,-60.3769 406,-54.0606 406,-48.0396"/>
<ellipse fill="none" stroke="#67270b" cx="406" cy="-70.3267" rx="4" ry="4"/>
<polygon fill="#67270b" stroke="#67270b" points="406,-47.6674 410.5,-37.6673 406,-42.6674 406,-37.6674 406,-37.6674 406,-37.6674 406,-42.6674 401.5,-37.6674 406,-47.6674 406,-47.6674"/>
</g>
<!-- Channel&#45;&gt;GroupRelation -->
<g id="edge14" class="edge"><title>Channel&#45;&gt;GroupRelation</title>
<path fill="none" stroke="#ae2c3d" d="M355.397,-80.2631C305.924,-67.8107 230.396,-48.8003 176.607,-35.2617"/>
<ellipse fill="none" stroke="#ae2c3d" cx="359.371" cy="-81.2634" rx="4.00001" ry="4.00001"/>
<polygon fill="#ae2c3d" stroke="#ae2c3d" points="176.525,-35.2411 167.926,-28.4363 171.677,-34.0207 166.828,-32.8002 166.828,-32.8002 166.828,-32.8002 171.677,-34.0207 165.729,-37.1641 176.525,-35.2411 176.525,-35.2411"/>
</g>
<!-- Mailer -->
<g id="node6" class="node"><title>Mailer</title>
<polygon fill="none" stroke="black" points="633,-111 575,-111 575,-75 633,-75 633,-111"/>
<text text-anchor="middle" x="604" y="-89.4" font-family="Times Roman,serif" font-size="14.00">Mailer</text>
</g>
<!-- UserSession -->
<g id="node8" class="node"><title>UserSession</title>
<polygon fill="none" stroke="black" points="904,-111 804,-111 804,-75 904,-75 904,-111"/>
<text text-anchor="middle" x="854" y="-89.4" font-family="Times Roman,serif" font-size="14.00">UserSession</text>
</g>
<!-- Place -->
<g id="node10" class="node"><title>Place</title>
<ellipse fill="none" stroke="black" cx="1039" cy="-195" rx="36.977" ry="18.3848"/>
<text text-anchor="middle" x="1039" y="-191.4" font-family="Times Roman,serif" font-size="14.00">Place</text>
</g>
<!-- ActionMailer::Base -->
<g id="node20" class="node"><title>ActionMailer::Base</title>
<ellipse fill="none" stroke="black" cx="604" cy="-195" rx="101.823" ry="18.3848"/>
<text text-anchor="middle" x="604" y="-191.4" font-family="Times Roman,serif" font-size="14.00">ActionMailer::Base</text>
</g>
<!-- ActionMailer::Base&#45;&gt;Mailer -->
<g id="edge16" class="edge"><title>ActionMailer::Base&#45;&gt;Mailer</title>
<path fill="none" stroke="black" d="M604,-176.292C604,-157.773 604,-129.603 604,-111.247"/>
</g>
<!-- Authlogic::Session::Base -->
<g id="node22" class="node"><title>Authlogic::Session::Base</title>
<ellipse fill="none" stroke="black" cx="854" cy="-195" rx="130.108" ry="18.3848"/>
<text text-anchor="middle" x="854" y="-191.4" font-family="Times Roman,serif" font-size="14.00">Authlogic::Session::Base</text>
</g>
<!-- Authlogic::Session::Base&#45;&gt;UserSession -->
<g id="edge18" class="edge"><title>Authlogic::Session::Base&#45;&gt;UserSession</title>
<path fill="none" stroke="black" d="M854,-176.292C854,-157.773 854,-129.603 854,-111.247"/>
</g>
</g>
</svg>
